<svg xmlns="http://www.w3.org/2000/svg" xmlns:xlink="http://www.w3.org/1999/xlink" width="2352.365" height="2569.479" viewBox="0 0 2352.365 2569.479">
  <defs>
    <linearGradient id="linear-gradient" x1="0.5" x2="0.5" y2="1" gradientUnits="objectBoundingBox">
      <stop offset="0" stop-color="#1f1f1f"/>
      <stop offset="1"/>
    </linearGradient>
    <filter id="Path_28" x="910.349" y="0" width="836.006" height="444.761" filterUnits="userSpaceOnUse">
      <feOffset dy="20" input="SourceAlpha"/>
      <feGaussianBlur stdDeviation="2.5" result="blur"/>
      <feFlood flood-opacity="0.161"/>
      <feComposite operator="in" in2="blur"/>
      <feComposite in="SourceGraphic"/>
    </filter>
    <filter id="Path_29" x="1539.084" y="304.138" width="813.28" height="757.588" filterUnits="userSpaceOnUse">
      <feOffset dy="8" input="SourceAlpha"/>
      <feGaussianBlur stdDeviation="3" result="blur-2"/>
      <feFlood flood-opacity="0.161"/>
      <feComposite operator="in" in2="blur-2"/>
      <feComposite in="SourceGraphic"/>
    </filter>
    <linearGradient id="linear-gradient-4" x1="0.5" x2="0.5" y2="1" gradientUnits="objectBoundingBox">
      <stop offset="0" stop-color="#313131"/>
      <stop offset="1"/>
    </linearGradient>
    <filter id="Path_30" x="458.377" y="184.422" width="494.289" height="275.61" filterUnits="userSpaceOnUse">
      <feOffset dy="8" input="SourceAlpha"/>
      <feGaussianBlur stdDeviation="3" result="blur-3"/>
      <feFlood flood-opacity="0.161"/>
      <feComposite operator="in" in2="blur-3"/>
      <feComposite in="SourceGraphic"/>
    </filter>
    <filter id="Path_31" x="815.751" y="364.256" width="795.7" height="412.327" filterUnits="userSpaceOnUse">
      <feOffset dy="8" input="SourceAlpha"/>
      <feGaussianBlur stdDeviation="3" result="blur-4"/>
      <feFlood flood-opacity="0.161"/>
      <feComposite operator="in" in2="blur-4"/>
      <feComposite in="SourceGraphic"/>
    </filter>
    <filter id="Path_32" x="757.644" y="663.228" width="785.659" height="770.319" filterUnits="userSpaceOnUse">
      <feOffset dy="8" input="SourceAlpha"/>
      <feGaussianBlur stdDeviation="3" result="blur-5"/>
      <feFlood flood-opacity="0.161"/>
      <feComposite operator="in" in2="blur-5"/>
      <feComposite in="SourceGraphic"/>
    </filter>
    <filter id="Path_33" x="1453.507" y="651.594" width="510.604" height="625.014" filterUnits="userSpaceOnUse">
      <feOffset dy="8" input="SourceAlpha"/>
      <feGaussianBlur stdDeviation="3" result="blur-6"/>
      <feFlood flood-opacity="0.161"/>
      <feComposite operator="in" in2="blur-6"/>
      <feComposite in="SourceGraphic"/>
    </filter>
    <filter id="Path_34" x="0" y="301.87" width="797.984" height="781.387" filterUnits="userSpaceOnUse">
      <feOffset dy="8" input="SourceAlpha"/>
      <feGaussianBlur stdDeviation="3" result="blur-7"/>
      <feFlood flood-opacity="0.161"/>
      <feComposite operator="in" in2="blur-7"/>
      <feComposite in="SourceGraphic"/>
    </filter>
    <linearGradient id="linear-gradient-10" x1="0.5" x2="0.5" y2="1" gradientUnits="objectBoundingBox">
      <stop offset="0" stop-color="#1f1f1f"/>
      <stop offset="1"/>
      <stop offset="1" stop-color="#792a00"/>
    </linearGradient>
    <filter id="Path_39" x="198.065" y="1508.573" width="525.438" height="696.31" filterUnits="userSpaceOnUse">
      <feOffset dy="8" input="SourceAlpha"/>
      <feGaussianBlur stdDeviation="3" result="blur-8"/>
      <feFlood flood-opacity="0.161"/>
      <feComposite operator="in" in2="blur-8"/>
      <feComposite in="SourceGraphic"/>
    </filter>
    <filter id="Path_38" x="1034.073" y="1262.269" width="677.455" height="614.041" filterUnits="userSpaceOnUse">
      <feOffset dy="8" input="SourceAlpha"/>
      <feGaussianBlur stdDeviation="3" result="blur-9"/>
      <feFlood flood-opacity="0.161"/>
      <feComposite operator="in" in2="blur-9"/>
      <feComposite in="SourceGraphic"/>
    </filter>
    <filter id="Path_40" x="757.644" y="1899.921" width="800.516" height="669.559" filterUnits="userSpaceOnUse">
      <feOffset dy="8" input="SourceAlpha"/>
      <feGaussianBlur stdDeviation="3" result="blur-10"/>
      <feFlood flood-opacity="0.161"/>
      <feComposite operator="in" in2="blur-10"/>
      <feComposite in="SourceGraphic"/>
    </filter>
    <linearGradient id="linear-gradient-15" x1="0.5" x2="0.5" y2="1" gradientUnits="objectBoundingBox">
      <stop offset="0" stop-color="#1f1f1f"/>
      <stop offset="1" stop-color="#1f1f1f"/>
    </linearGradient>
  </defs>
  <g id="Group_5" data-name="Group 5" transform="translate(-5213.197 -3789.636)">
    <path id="Path_42" data-name="Path 42" d="M6731.162,5446.7l321.474-146.661v438.4l-321.474,144.646Z" stroke="#f15400" stroke-width="8" fill="url(#linear-gradient)"/>
    <g transform="matrix(1, 0, 0, 1, 5213.2, 3789.64)" filter="url(#Path_28)">
      <path id="Path_28-2" data-name="Path 28" d="M6454.965,3800.482l-315.136,162.011,471.351,239.912,332-170.34L6465.315,3794.2Z" transform="translate(-5213.2 -3789.64)" stroke="#e55000" stroke-width="8" fill="url(#linear-gradient)"/>
    </g>
    <g transform="matrix(1, 0, 0, 1, 5213.2, 3789.64)" filter="url(#Path_29)">
      <path id="Path_29-2" data-name="Path 29" d="M6782.96,4269.416l40.279-23.533,279.245-140.515,463.109,256.8v334.254l-272.949,139.615-48.967-19.748,2.552-307.474L6790.394,4272.84Z" transform="translate(-5226.23 -3795.71)" stroke="#ef5300" stroke-width="8" fill="url(#linear-gradient)"/>
    </g>
    <g transform="matrix(1, 0, 0, 1, 5213.2, 3789.64)" filter="url(#Path_30)">
      <path id="Path_30-2" data-name="Path 30" d="M5684.574,4108.263l256.354-128.691,207.437,113.058-259.6,135.527-204.191-106.419Z" transform="translate(-5213.2 -3789.64)" stroke="#f25400" stroke-width="8" fill="url(#linear-gradient-4)"/>
    </g>
    <g transform="matrix(1, 0, 0, 1, 5213.2, 3789.64)" filter="url(#Path_31)">
      <path id="Path_31-2" data-name="Path 31" d="M6045.881,4300.7l280.059-141.331L6806.73,4402.2l-285.782,142.542-477.438-239.883Z" transform="translate(-5213.2 -3789.64)" stroke="#f35500" stroke-width="8" fill="url(#linear-gradient)"/>
    </g>
    <g transform="matrix(1, 0, 0, 1, 5213.2, 3789.64)" filter="url(#Path_32)">
      <path id="Path_32-2" data-name="Path 32" d="M6270.569,4464.635,5983.84,4599.8v366.493l461.682,235.387,297.93-155.8-6.958-358.033-450.347-229.588Z" transform="translate(-5213.2 -3789.64)" stroke="#e85100" stroke-width="8" fill="url(#linear-gradient)"/>
    </g>
    <g transform="matrix(1, 0, 0, 1, 5213.2, 3789.64)" filter="url(#Path_33)">
      <path id="Path_33-2" data-name="Path 33" d="M6694.273,4587.622l270.941-140.905,199.093,98.806v347.489l-287.805,149.7-5.937-355.4-186.757-93.007Z" transform="translate(-5213.2 -3789.64)" stroke="#eb5200" stroke-width="8" fill="url(#linear-gradient)"/>
    </g>
    <g transform="matrix(1, 0, 0, 1, 5213.2, 3789.64)" filter="url(#Path_34)">
      <path id="Path_34-2" data-name="Path 34" d="M5226.2,4242.364,5522.753,4097l470.928,251.978L5701.5,4504.29l1.749,344.7-52.935-30.167L5226.2,4600.84Z" transform="translate(-5213.2 -3789.64)" stroke="#ea5100" stroke-width="8" fill="url(#linear-gradient-4)"/>
    </g>
    <path id="Path_35" data-name="Path 35" d="M5359.711,4814.081l208.333,99.761v337.133l-217.505-114.216Z" stroke="#ee5300" stroke-width="8" fill="url(#linear-gradient)"/>
    <path id="Path_36" data-name="Path 36" d="M5794.44,4933.958l411.8,195.772v345.046l-419-215.777V4930Z" stroke="#ed5300" stroke-width="8" fill="url(#linear-gradient-10)"/>
    <g transform="matrix(1, 0, 0, 1, 5213.2, 3789.64)" filter="url(#Path_39)">
      <path id="Path_39-2" data-name="Path 39" d="M5424.262,5305.523v403.714l493.532,261.682,5.872-429.458Z" transform="translate(-5213.2 -3789.64)" stroke="#ef5300" stroke-width="8" fill="url(#linear-gradient)"/>
    </g>
    <path id="Path_37" data-name="Path 37" d="M6959.275,5029.276l500.288-250.119v351.7l-500.288,256.771Z" stroke="#ee5300" stroke-width="8" fill="url(#linear-gradient)"/>
    <g transform="matrix(1, 0, 0, 1, 5213.2, 3789.64)" filter="url(#Path_38)">
      <path id="Path_38-2" data-name="Path 38" d="M6271.834,5222.779l162.443,71.542,473.554-235,3.867,356.326L6447.386,5644.5,6260.27,5556V5217.24Z" transform="translate(-5213.2 -3789.64)" stroke="#ee5300" stroke-width="8" fill="url(#linear-gradient)"/>
    </g>
    <g transform="matrix(1, 0, 0, 1, 5213.2, 3789.64)" filter="url(#Path_40)">
      <path id="Path_40-2" data-name="Path 40" d="M5983.84,5712.123v397l459.791,228.546,314.647-148.753-12.792-418.325-301.855,142.192L6002.6,5695.339Z" transform="translate(-5213.2 -3789.64)" stroke="#f25400" stroke-width="8" fill="url(#linear-gradient)"/>
    </g>
    <path id="Path_41" data-name="Path 41" d="M7165.912,5435.887v432.224l358.377-195.339V5264.739Z" stroke="#ee5300" stroke-width="8" fill="url(#linear-gradient-15)"/>
  </g>
</svg>
