<svg xmlns="http://www.w3.org/2000/svg" xmlns:xlink="http://www.w3.org/1999/xlink" width="285" height="103" viewBox="0 0 285 103">
  <defs>
    <radialGradient id="radial-gradient" cx="0.5" cy="0.5" r="0.5" gradientUnits="objectBoundingBox">
      <stop offset="0" stop-color="#656565"/>
      <stop offset="1" stop-color="#2e2e2e"/>
    </radialGradient>
    <filter id="Path_2" x="34" y="25.845" width="251" height="77.155" filterUnits="userSpaceOnUse">
      <feOffset dy="4" input="SourceAlpha"/>
      <feGaussianBlur stdDeviation="3" result="blur"/>
      <feFlood flood-opacity="0.161"/>
      <feComposite operator="in" in2="blur"/>
      <feComposite in="SourceGraphic"/>
    </filter>
    <filter id="Path_1" x="24" y="14.845" width="251" height="77.155" filterUnits="userSpaceOnUse">
      <feOffset dy="4" input="SourceAlpha"/>
      <feGaussianBlur stdDeviation="3" result="blur-2"/>
      <feFlood flood-opacity="0.161"/>
      <feComposite operator="in" in2="blur-2"/>
      <feComposite in="SourceGraphic"/>
    </filter>
    <linearGradient id="linear-gradient" x1="0.037" y1="0.391" x2="1" y2="0.5" gradientUnits="objectBoundingBox">
      <stop offset="0"/>
      <stop offset="1" stop-color="#191919"/>
    </linearGradient>
    <filter id="Rectangle_1" x="0" y="0" width="263" height="80" filterUnits="userSpaceOnUse">
      <feOffset dy="4" input="SourceAlpha"/>
      <feGaussianBlur stdDeviation="3" result="blur-3"/>
      <feFlood flood-opacity="0.161"/>
      <feComposite operator="in" in2="blur-3"/>
      <feComposite in="SourceGraphic"/>
    </filter>
  </defs>
  <g id="Group_1" data-name="Group 1" transform="translate(-36 -104)">
    <g transform="matrix(1, 0, 0, 1, 36, 104)" filter="url(#Path_2)">
      <path id="Path_2-2" data-name="Path 2" d="M0,0H233V59.155H0Z" transform="translate(43 30.84)" opacity="0.416" fill="url(#radial-gradient)"/>
    </g>
    <g transform="matrix(1, 0, 0, 1, 36, 104)" filter="url(#Path_1)">
      <path id="Path_1-2" data-name="Path 1" d="M0,0H233V59.155H0Z" transform="translate(33 19.84)" opacity="0.82" fill="url(#radial-gradient)"/>
    </g>
    <g transform="matrix(1, 0, 0, 1, 36, 104)" filter="url(#Rectangle_1)">
      <g id="Rectangle_1-2" data-name="Rectangle 1" transform="translate(9 5)" stroke="#f65600" stroke-width="3" fill="url(#linear-gradient)">
        <rect width="245" height="62" stroke="none"/>
        <rect x="1.5" y="1.5" width="242" height="59" fill="none"/>
      </g>
    </g>
  </g>
</svg>
