<svg xmlns="http://www.w3.org/2000/svg" xmlns:xlink="http://www.w3.org/1999/xlink" width="828.729" height="828.729" viewBox="0 0 828.729 828.729">
  <defs>
    <filter id="Rectangle_10" x="385.718" y="253.25" width="105.293" height="87.083" filterUnits="userSpaceOnUse">
      <feOffset dy="1" input="SourceAlpha"/>
      <feGaussianBlur stdDeviation="3" result="blur"/>
      <feFlood flood-opacity="0.161"/>
      <feComposite operator="in" in2="blur"/>
      <feComposite in="SourceGraphic"/>
    </filter>
  </defs>
  <g id="Group_20" data-name="Group 20" transform="translate(-59.135 -533.208)">
    <g id="Rectangle_11" data-name="Rectangle 11" transform="translate(473.5 574.647) rotate(45)" fill="none" stroke="#707070" stroke-width="1">
      <rect width="527" height="527" stroke="none"/>
      <rect x="0.5" y="0.5" width="526" height="526" fill="none"/>
    </g>
    <g id="Rectangle_12" data-name="Rectangle 12" transform="translate(473.5 533.208) rotate(45)" fill="none" stroke="#f16c25" stroke-width="1">
      <rect width="586" height="586" stroke="none"/>
      <rect x="0.5" y="0.5" width="585" height="585" fill="none"/>
    </g>
    <g id="Group_19" data-name="Group 19" transform="translate(126 -113)">
      <g id="Group_15" data-name="Group 15" transform="translate(-8 844)">
        <g id="humaaans_sitting-2" data-name="humaaans/sitting-2" transform="translate(371 14)">
          <g id="A-Human_Sitting" data-name="A-Human/Sitting" transform="translate(340 24) rotate(180)">
            <g id="Head_Front_Rad" data-name="Head/Front/Rad" transform="translate(82)">
              <g id="Head" transform="translate(54 -31)">
                <path id="Path_46" data-name="Path 46" d="M8.262-34.49C3.654-29.081.536-22.453,1.057-15.025c1.5,21.4,31.292,16.693,37.087,5.892s5.106-38.2-2.383-40.13c-2.987-.77-9.349,1.116-15.825,5.019L24-73H0Z" fill="none" stroke="#fff" stroke-width="1" fill-rule="evenodd"/>
              </g>
              <path id="hair" d="M95.407,38.9A7.5,7.5,0,0,0,96.97,36a29.388,29.388,0,0,0,1-3.3c.5-2.249.509-4.836-1.1-6.582a7.548,7.548,0,0,0-5-2.165,9.187,9.187,0,0,0-3.545.449c-1.129.371-2.1,1.111-3.2,1.57a14.306,14.306,0,0,0-1.687-7.03,7.008,7.008,0,0,0-5.218-3.4,10.347,10.347,0,0,0-6.357,1.28c-.494.267-.984.547-1.453.865a4.071,4.071,0,0,1-1.261.693c-.513.121-.768-.176-1.1-.55a8.368,8.368,0,0,0-1.3-1.168,7.647,7.647,0,0,0-7.155-1.23,6.649,6.649,0,0,0-2.917,2.109c-.666.873-1.14,2.258-2.059,2.866-.39.258-.665-.084-1.02-.337-.533-.38-1.042-.8-1.581-1.169a7.242,7.242,0,0,0-2.457-1.111c-1.286-.3-3.064-.228-3.432,1.457a6.954,6.954,0,0,0,.012,1.947c.061.876.125,1.751.2,2.625a18.954,18.954,0,0,0,.256,1.957,2.863,2.863,0,0,1,.127,1.343c-.186.435-1.046.188-1.413.2a5.582,5.582,0,0,0-2.124.467,2.286,2.286,0,0,0-1.285,1.189,2.136,2.136,0,0,0-.036,1.118,3.335,3.335,0,0,1-.068,1.147c-.974-.48-4.349-1.545-4.774.2a2.731,2.731,0,0,0,.426,1.728,14.978,14.978,0,0,0,1.573,2.395,21.412,21.412,0,0,0,4.19,4.065,2.746,2.746,0,0,0-.716,4.6,3.4,3.4,0,0,0,2.5.724,5.525,5.525,0,0,1,1.033-.082,2.47,2.47,0,0,0,.468.158,13.928,13.928,0,0,0,3.832-.486,12.636,12.636,0,0,0,5.844-3.056,1.8,1.8,0,0,1,1.352-.621c.5.005,1,.143,1.5.156a10.791,10.791,0,0,0,3.761-1.048,14.189,14.189,0,0,0,1.232,5c.556,1.223,1.717,1.4,2.858,1.508,3.649.343,7.31-.04,10.963-.035-3.536.8-7.191,1.129-10.7,2.069-1.584.425-.375,1.493.3,2.233a12.87,12.87,0,0,1,2.52,4.32c1.73-2.255,4.788-3.741,7.5-3.048,2.993.765,5.1,4.813,3.187,7.723-1.111,1.689-3.118,2.341-4.788,3.067,1.3,1.354,1.618,3.354,2.4,5.039a3.606,3.606,0,0,0,1.794,2.06,2.1,2.1,0,0,1,.947.377c.313.323.387.684.786.961a4.434,4.434,0,0,0,5.494-.423,3.586,3.586,0,0,0-.122-4.7c1.7-.708,4.791-1.618,4.116-4.263,3.679-.244,12.611-6.211,7.674-10.571,2.71-1.531,5.2-5.274,3.459-8.574-1.34-2.541-4.457-3.676-7.015-3.811" transform="translate(140) rotate(180)" fill="none" stroke="#fff" stroke-width="1" fill-rule="evenodd"/>
            </g>
            <g id="Bottom_Sitting_Skinny-Jeans-1" data-name="Bottom/Sitting/Skinny-Jeans-1" transform="translate(0 -187)">
              <g id="Objects_Seat_Cube" data-name="Objects/Seat/Cube" transform="translate(10 -42)">
                <g id="Seat" transform="translate(55)">
                  <path id="Seat-Stuff" d="M27.623,0h77.255L115-124H0Z" fill="none" stroke="#fff" stroke-width="1" fill-rule="evenodd"/>
                  <path id="Seat-Stuff-2" data-name="Seat-Stuff" d="M27.623,0h23.76L65.6-124H0Z" fill="none" stroke="#fff" stroke-width="1" fill-rule="evenodd"/>
                </g>
              </g>
              <path id="Skin" d="M257.953-20.756c8.237,4.946,22.056-1.409,22.047-8.482-.028-21.164-19.343-120.913-20.352-127.218s-11.812-7.971-12.441-.021c-1,12.651-2.861,56.444-1,76.715.768,8.367,1.6,16.336,2.41,23.445q-15.2-27.455-47.024-78.616l-11.517,5.262q13.565,44.694,22.247,63.106c9.91,21.017,19.2,39.015,23.113,45.354C241.588-11.24,252.3-14.719,257.953-20.756Z" fill="none" stroke="#fff" stroke-width="1" fill-rule="evenodd"/>
              <path id="LegLower" d="M208.819-123.34l5.118,101.51c3.688,17.552,34.907,9.406,34.894,0-.029-21.355-12.857-95.127-12.866-101.489Z" transform="translate(36.859 74.197) rotate(-20)" fill="none" stroke="#fff" stroke-width="1" fill-rule="evenodd"/>
              <g id="Accessories_Shoe_Flat-Sneaker" data-name="Accessories/Shoe/Flat-Sneaker" transform="matrix(0.866, -0.5, 0.5, 0.866, 199.086, -100.429)">
                <path id="shoe" d="M2.678-25.4A21.472,21.472,0,0,1,1-32.106,50.177,50.177,0,0,1,1.9-40H58.3q2.2,7.268-2.538,7.848T47.9-31.106L21.68-19.419a1,1,0,0,1-1.321-.506l-.011-.026-1.685-4.088a17.984,17.984,0,0,0-7.127-2.046,16.139,16.139,0,0,0-6.152,1.8h0a2,2,0,0,1-2.652-.985Q2.7-25.335,2.678-25.4Z" fill="none" stroke="#fff" stroke-width="1" fill-rule="evenodd"/>
              </g>
              <g id="Accessories_Shoe_Flat-Sneaker-2" data-name="Accessories/Shoe/Flat-Sneaker" transform="translate(242 -126)">
                <path id="shoe-2" data-name="shoe" d="M2.678-25.4A21.472,21.472,0,0,1,1-32.106,50.177,50.177,0,0,1,1.9-40H58.3q2.2,7.268-2.538,7.848T47.9-31.106L21.68-19.419a1,1,0,0,1-1.321-.506l-.011-.026-1.685-4.088a17.984,17.984,0,0,0-7.127-2.046,16.139,16.139,0,0,0-6.152,1.8h0a2,2,0,0,1-2.652-.985Q2.7-25.335,2.678-25.4Z" fill="none" stroke="#fff" stroke-width="1" fill-rule="evenodd"/>
              </g>
              <path id="Leg-and-Butt" d="M282.77-36.433c0-26.567-12.617-88.537-12.625-94.387L243-130.841Q248.96-47.9,247.227-47c-1.733.894-71.051-6.921-91.84-6.921C125.408-53.925,113.006-35.02,112,0h59.386c12.092-1.294,75.162-14.015,98.586-18.388C280-20.261,282.77-29.115,282.77-36.433Z" fill="none" stroke="#fff" stroke-width="1" fill-rule="evenodd"/>
            </g>
            <g id="Body_Pointing-Forward" data-name="Body/Pointing-Forward" transform="translate(22 -82)">
              <path id="Skin-2" data-name="Skin" d="M158.638-42.7l34.71,19.01A85.863,85.863,0,0,0,210.409-7.72c1.712.715,4.705,1.147,1.906-3.822s-5.521-10.321-4.094-11.852,4.983.608,6.684-1.936q1.7-2.543-18.228-8.036L171.456-56.458ZM213-58.74l15.247,8.376q3.209,12.21,7.672,12.287c2.286,1.063-1.695-9.223,2.638-8.331s14.908,8.757,16.73,7.16c2.7-2.363.292-9.617-2.54-13.225-5.293-6.745-9.676-9.051-20.508-12.071q-8.5-2.369-18.37-9.5Z" fill="none" stroke="#fff" stroke-width="1" fill-rule="evenodd"/>
              <path id="Sleeve" d="M142.858-34.75A85.286,85.286,0,0,1,190.1-28.386l4.34-16.026c-13.638-9.829-31.731-16.814-46.156-14.112C136.92-56.4,133.272-41.66,142.858-34.75Z" transform="translate(-4.801 -26.491) rotate(9)" fill="none" stroke="#fff" stroke-width="1" fill-rule="evenodd"/>
              <path id="Clothes" d="M158.1-62.761q19.36-4.828,64.932,11.388,11.3-23.385,10.451-33.344c-26.062-13.614-48.4-19.684-66.8-20.084.585-10.92-.744-21.31-5.209-30.8-9.179-19.518-62.929-1.442-81-5C69.155-103.851,91.038-88.914,91.056-65.4,91.075-39.642,111.754,0,114.8,0h27.747C144.075-19.669,151.78-41.346,158.1-62.761Z" fill="none" stroke="#fff" stroke-width="1" fill-rule="evenodd"/>
            </g>
          </g>
        </g>
        <g transform="matrix(1, 0, 0, 1, -58.86, -197.79)" filter="url(#Rectangle_10)">
          <g id="Rectangle_10-2" data-name="Rectangle 10" transform="translate(407.3 261.25) rotate(14)" fill="#0a0a0a" stroke="#fa5700" stroke-width="1">
            <rect width="77" height="52" rx="3" stroke="none"/>
            <rect x="0.5" y="0.5" width="76" height="51" rx="2.5" fill="none"/>
          </g>
        </g>
        <g id="humaaans_standing-8" data-name="humaaans/standing-8" transform="translate(-12.681 -50)">
          <g id="A-Human_Standing" data-name="A-Human/Standing" transform="translate(40 27)">
            <g id="Head_Front_Long" data-name="Head/Front/Long" transform="translate(82)">
              <path id="Hair-Back" d="M95.762,45.29c3.447,12.7,7.939,41.254,3.355,45.732h-29l-.009-.154A21.5,21.5,0,0,1,51,69.5v-21A21.5,21.5,0,0,1,72.5,27h2A21.505,21.505,0,0,1,95.762,45.29Z" fill="none" stroke="#fff" stroke-width="1" fill-rule="evenodd"/>
              <g id="Head-2" data-name="Head" transform="translate(54 31)">
                <path id="Path_47" data-name="Path 47" d="M8.262,34.49C3.654,29.081.536,22.453,1.057,15.025c1.5-21.4,31.292-16.693,37.087-5.892s5.106,38.2-2.383,40.13c-2.987.77-9.349-1.116-15.825-5.019L24,73H0Z" fill="none" stroke="#fff" stroke-width="1" fill-rule="evenodd"/>
              </g>
              <path id="Hair-Front" d="M68.75,61.875c1.106,11.878.663,25.442-2.633,28.662h-29c-1.616-28.074,14-17.2,14-43.634.974-.951,1.894-1.893,2.8-2.7l-.032-.777Q61.421,28,73,28c11.58,0,15.235,5.388,18.347,9.963C89.022,45.948,79.99,47.132,71.966,52.11A5.5,5.5,0,1,0,68.5,61.88Q68.626,61.88,68.75,61.875Z" fill="none" stroke="#fff" stroke-width="1" fill-rule="evenodd"/>
            </g>
            <g id="Bottom_Standing_Skirt" data-name="Bottom/Standing/Skirt" transform="translate(0 187)">
              <path id="Skirt-Shadow" d="M97.408,98.088q35.984,10.065,62.092,10.065t48.5-15.5q-35.214-10.331-58-10.331T97.408,98.088Z" fill="none" stroke="#fff" stroke-width="1" fill-rule="evenodd"/>
              <path id="Leg" d="M180.267,117.824a5.657,5.657,0,0,1-.582-1.136C176.479,108.208,125.117,16.726,120,0h57.826c3.89,12.717,21.4,92.52,23.865,108.442,7.775,25.115,23.784,106.454,25.828,112.088,2.15,5.928-9.947,12.1-13.17,4.816-5.129-11.6-17.35-43.681-22.792-63.271C186.456,143.708,182.3,127.185,180.267,117.824Z" fill="none" stroke="#fff" stroke-width="1" fill-rule="evenodd"/>
              <path id="Leg-2" data-name="Leg" d="M132.957,128.994c-23.482,5.935-109.373,16.664-115.267,18.347-6.063,1.731-11.38-10.767-3.885-13.474,11.925-4.308,44.784-14.261,64.707-18.322,16.025-3.267,30.647-5.933,40.465-7.494-.832-27.577-4.634-93.757-2.142-108.05H168c-2.39,13.707-22.59,113.718-26.344,123.729-1.191,3.574-4.747,5.153-8.7,5.265Z" fill="none" stroke="#fff" stroke-width="1" fill-rule="evenodd"/>
              <g id="Accessories_Shoe_Flat-Sneaker-3" data-name="Accessories/Shoe/Flat-Sneaker" transform="translate(38.9 123.49) rotate(80)">
                <path id="shoe-3" data-name="shoe" d="M2.678,25.4A21.472,21.472,0,0,0,1,32.106,50.177,50.177,0,0,0,1.9,40H58.3q2.2-7.268-2.538-7.848T47.9,31.106L21.68,19.419a1,1,0,0,0-1.321.506l-.011.026-1.685,4.088a17.984,17.984,0,0,1-7.127,2.046,16.139,16.139,0,0,1-6.152-1.8h0a2,2,0,0,0-2.652.985Q2.7,25.335,2.678,25.4Z" fill="none" stroke="#fff" stroke-width="1" fill-rule="evenodd"/>
              </g>
              <g id="Accessories_Shoe_Flat-Sneaker-4" data-name="Accessories/Shoe/Flat-Sneaker" transform="translate(208 199)">
                <path id="shoe-4" data-name="shoe" d="M2.678,25.4A21.472,21.472,0,0,0,1,32.106,50.177,50.177,0,0,0,1.9,40H58.3q2.2-7.268-2.538-7.848T47.9,31.106L21.68,19.419a1,1,0,0,0-1.321.506l-.011.026-1.685,4.088a17.984,17.984,0,0,1-7.127,2.046,16.139,16.139,0,0,1-6.152-1.8h0a2,2,0,0,0-2.652.985Q2.7,25.335,2.678,25.4Z" fill="none" stroke="#fff" stroke-width="1" fill-rule="evenodd"/>
              </g>
              <path id="Skirt" d="M117,0q33.82-9.676,64,0c7,31.937,24.009,44.613,27,93.579-34,16.894-76-12.048-111,4.426C87,74.961,101,19.465,117,0Z" fill="none" stroke="#fff" stroke-width="1" fill-rule="evenodd"/>
            </g>
            <g id="Body_Long-Sleeve" data-name="Body/Long-Sleeve" transform="translate(22 82)">
              <path id="Skin-3" data-name="Skin" d="M192,65.311l39.483-5.386A86.07,86.07,0,0,1,253.281,51c1.867-.055,4.836.624.412,4.312s-8.913,7.768-8.125,9.736,4.9,1.236,5.584,4.263q.682,3.027-20.032.984L199.084,83ZM67.97,74.45l21.9.082q-36.017,81.051-37.559,84.874c-2.314,5.735,2.583,14.468,4.677,19.162-6.82,3.052-6.093-8.25-14.7-4.248-7.853,3.653-13.826,10.273-22.9,4.675-1.115-.688-2.338-3.28.616-5.3,7.358-5.045,17.961-13.875,19.393-16.781Q42.328,150.963,67.97,74.45Z" fill="none" stroke="#fff" stroke-width="1" fill-rule="evenodd"/>
              <path id="Clothes-Back" d="M123.474,9.669l17.179-.356C148.189,47,173.2,69.034,223.79,56.408l11.1,48.411c-47.4,10.391-91.133-5.126-104.3-56.344C127.188,35.216,124.2,21.368,123.474,9.669Z" transform="translate(5.788 -15.394) rotate(5)" fill="none" stroke="#fff" stroke-width="1" fill-rule="evenodd"/>
              <path id="Clothes-2" data-name="Clothes" d="M119.491.016l25.977,5.949C145.468,50.644,159.7,79.15,167,112H96.844c-.988,11.351-1.6,23.018-1.911,35H42.4c5.059-26.918,12.506-51.246,22.417-73.152Q84.665,29.981,117.776,0h1.7Z" fill="none" stroke="#fff" stroke-width="1" fill-rule="evenodd"/>
              <path id="Shade" d="M107.912,48.259Q105.2,90.021,111.1,112H96.844c1.958-22.486,5.412-43.733,11.069-63.741Z" fill="none" stroke="#fff" stroke-width="1" fill-rule="evenodd"/>
            </g>
          </g>
        </g>
      </g>
    </g>
  </g>
</svg>
