<svg xmlns="http://www.w3.org/2000/svg" xmlns:xlink="http://www.w3.org/1999/xlink" width="305.36" height="279.459" viewBox="0 0 305.36 279.459">
  <defs>
    <linearGradient id="linear-gradient" x1="0.5" y1="1" x2="0.5" gradientUnits="objectBoundingBox">
      <stop offset="0" stop-color="gray" stop-opacity="0.251"/>
      <stop offset="0.54" stop-color="gray" stop-opacity="0.122"/>
      <stop offset="1" stop-color="gray" stop-opacity="0.102"/>
    </linearGradient>
    <linearGradient id="linear-gradient-2" x1="0.5" x2="0.5" y2="1" gradientUnits="objectBoundingBox">
      <stop offset="0" stop-color="#f95700"/>
      <stop offset="1" stop-color="#923300"/>
    </linearGradient>
    <linearGradient id="linear-gradient-3" x1="0.5" x2="0.5" y2="1" gradientUnits="objectBoundingBox">
      <stop offset="0"/>
      <stop offset="1" stop-color="#191919"/>
    </linearGradient>
  </defs>
  <g id="Group_31" data-name="Group 31" transform="translate(-485.699 -1432.842)">
    <g id="Rectangle_22" data-name="Rectangle 22" transform="translate(678.617 1492.729) rotate(-14)" fill="none" stroke="#fff" stroke-width="1">
      <rect width="79" height="79" stroke="none"/>
      <rect x="0.5" y="0.5" width="78" height="78" fill="none"/>
    </g>
    <g id="Rectangle_23" data-name="Rectangle 23" transform="translate(537.617 1628.729) rotate(-14)" fill="none" stroke="#fff" stroke-width="1">
      <rect width="79" height="79" stroke="none"/>
      <rect x="0.5" y="0.5" width="78" height="78" fill="none"/>
    </g>
    <g id="Group_28" data-name="Group 28">
      <g id="Group_25" data-name="Group 25" transform="translate(-103.663 -94.871)">
        <g id="Group_24" data-name="Group 24" transform="translate(589.362 1527.712)">
          <g id="Rectangle_19" data-name="Rectangle 19" transform="translate(263.391 60.769) rotate(68)" fill="none" stroke="#707070" stroke-width="1">
            <rect width="112.033" height="278.568" stroke="none"/>
            <rect x="0.5" y="0.5" width="111.033" height="277.568" fill="none"/>
          </g>
          <g id="Rectangle_20" data-name="Rectangle 20" transform="translate(119.66 142.231) rotate(163)" fill="none" stroke="#b03d00" stroke-width="1">
            <rect width="96.893" height="92.351" stroke="none"/>
            <rect x="0.5" y="0.5" width="95.893" height="91.351" fill="none"/>
          </g>
          <g id="Group_14" data-name="Group 14" transform="translate(12.738 0)">
            <circle id="Ellipse_1" data-name="Ellipse 1" cx="139.73" cy="139.73" r="139.73" transform="translate(0 0)" fill="url(#linear-gradient)"/>
            <circle id="Ellipse_2" data-name="Ellipse 2" cx="137.414" cy="137.414" r="137.414" transform="translate(2.316 2.316)" fill="url(#linear-gradient-2)"/>
            <circle id="Ellipse_3" data-name="Ellipse 3" cx="133.459" cy="133.459" r="133.459" transform="translate(6.27 6.27)" fill="url(#linear-gradient-3)"/>
            <rect id="Rectangle_5" data-name="Rectangle 5" width="3.148" height="96.498" transform="translate(138.156 49.793)" fill="#ef5300" opacity="0.799"/>
            <g id="Group_3" data-name="Group 3" transform="translate(81.121 108.531)" opacity="0.1">
              <rect id="Rectangle_6" data-name="Rectangle 6" width="87.235" height="7.72" transform="translate(65.171 28.883)"/>
              <rect id="Rectangle_7" data-name="Rectangle 7" width="7.72" height="61.96" transform="translate(0 6.839) rotate(-62.36)"/>
              <circle id="Ellipse_4" data-name="Ellipse 4" cx="11.58" cy="11.58" r="11.58" transform="translate(47.029 21.163)"/>
            </g>
            <rect id="Rectangle_8" data-name="Rectangle 8" width="87.235" height="3.178" transform="translate(146.292 138.898)" fill="#f45500"/>
            <rect id="Rectangle_9" data-name="Rectangle 9" width="61.96" height="3.178" transform="translate(82.622 107.991) rotate(27.64)" fill="#f05400"/>
            <circle id="Ellipse_5" data-name="Ellipse 5" cx="11.58" cy="11.58" r="11.58" transform="translate(128.15 128.15)" fill="#c74500"/>
            <g id="Group_4" data-name="Group 4" transform="translate(10.924 16.842) rotate(-3)" opacity="0.1">
              <path id="Path_20" data-name="Path 20" d="M9.355,122.36c0-60.331,53.877-109.236,120.34-109.236,37.822-.03,73.452,16.107,96.17,43.556C205.386,22.9,165.84,0,120.34,0,53.877,0,0,48.905,0,109.236c-.039,23.7,8.453,46.764,24.183,65.681A100.943,100.943,0,0,1,9.355,122.36Z"/>
            </g>
            <path id="Path_43" data-name="Path 43" d="M705.32,326.79s8.639,3.173,14.282.706l2.822.178s4.69,3.289,9.65,1.818" transform="translate(-526.103 -233.951)" opacity="0.05"/>
            <path id="Path_44" data-name="Path 44" d="M809.854,313.09s-1.409,3.35-.706,4.408" transform="translate(-589.734 -225.539)" opacity="0.05"/>
            <path id="Path_45" data-name="Path 45" d="M665.58,310.35s.706,3.35,0,4.408" transform="translate(-501.703 -223.857)" opacity="0.05"/>
          </g>
        </g>
      </g>
    </g>
  </g>
</svg>
