<svg xmlns="http://www.w3.org/2000/svg" xmlns:xlink="http://www.w3.org/1999/xlink" width="450.291" height="316.658" viewBox="0 0 450.291 316.658">
  <defs>
    <linearGradient id="linear-gradient" x1="0.5" y1="1" x2="0.5" gradientUnits="objectBoundingBox">
      <stop offset="0" stop-color="gray" stop-opacity="0.251"/>
      <stop offset="0.54" stop-color="gray" stop-opacity="0.122"/>
      <stop offset="1" stop-color="gray" stop-opacity="0.102"/>
    </linearGradient>
    <linearGradient id="linear-gradient-2" x1="0.5" x2="0.5" y2="1" gradientUnits="objectBoundingBox">
      <stop offset="0" stop-color="#f95700"/>
      <stop offset="1" stop-color="#923300"/>
    </linearGradient>
    <linearGradient id="linear-gradient-3" x1="0.5" x2="0.5" y2="1" gradientUnits="objectBoundingBox">
      <stop offset="0"/>
      <stop offset="1" stop-color="#191919"/>
    </linearGradient>
  </defs>
  <g id="Group_28" data-name="Group 28" transform="translate(-485.699 -1432.842)">
    <g id="Group_25" data-name="Group 25" transform="translate(-103.663 -94.871)">
      <g id="Group_24" data-name="Group 24" transform="translate(589.362 1527.712)">
        <g id="Rectangle_19" data-name="Rectangle 19" transform="translate(263.391 60.769) rotate(68)" fill="none" stroke="#707070" stroke-width="1">
          <rect width="112.033" height="278.568" stroke="none"/>
          <rect x="0.5" y="0.5" width="111.033" height="277.568" fill="none"/>
        </g>
        <g id="Rectangle_20" data-name="Rectangle 20" transform="translate(119.66 142.231) rotate(163)" fill="none" stroke="#b03d00" stroke-width="1">
          <rect width="96.893" height="92.351" stroke="none"/>
          <rect x="0.5" y="0.5" width="95.893" height="91.351" fill="none"/>
        </g>
        <g id="Group_14" data-name="Group 14" transform="translate(12.738 0)">
          <circle id="Ellipse_1" data-name="Ellipse 1" cx="139.73" cy="139.73" r="139.73" transform="translate(0 0)" fill="url(#linear-gradient)"/>
          <circle id="Ellipse_2" data-name="Ellipse 2" cx="137.414" cy="137.414" r="137.414" transform="translate(2.316 2.316)" fill="url(#linear-gradient-2)"/>
          <circle id="Ellipse_3" data-name="Ellipse 3" cx="133.459" cy="133.459" r="133.459" transform="translate(6.27 6.27)" fill="url(#linear-gradient-3)"/>
          <rect id="Rectangle_5" data-name="Rectangle 5" width="3.148" height="96.498" transform="translate(138.156 49.793)" fill="#ef5300" opacity="0.799"/>
          <g id="Group_3" data-name="Group 3" transform="translate(81.121 108.531)" opacity="0.1">
            <rect id="Rectangle_6" data-name="Rectangle 6" width="87.235" height="7.72" transform="translate(65.171 28.883)"/>
            <rect id="Rectangle_7" data-name="Rectangle 7" width="7.72" height="61.96" transform="translate(0 6.839) rotate(-62.36)"/>
            <circle id="Ellipse_4" data-name="Ellipse 4" cx="11.58" cy="11.58" r="11.58" transform="translate(47.029 21.163)"/>
          </g>
          <rect id="Rectangle_8" data-name="Rectangle 8" width="87.235" height="3.178" transform="translate(146.292 138.898)" fill="#f45500"/>
          <rect id="Rectangle_9" data-name="Rectangle 9" width="61.96" height="3.178" transform="translate(82.622 107.991) rotate(27.64)" fill="#f05400"/>
          <circle id="Ellipse_5" data-name="Ellipse 5" cx="11.58" cy="11.58" r="11.58" transform="translate(128.15 128.15)" fill="#c74500"/>
          <g id="Group_4" data-name="Group 4" transform="translate(10.924 16.842) rotate(-3)" opacity="0.1">
            <path id="Path_20" data-name="Path 20" d="M9.355,122.36c0-60.331,53.877-109.236,120.34-109.236,37.822-.03,73.452,16.107,96.17,43.556C205.386,22.9,165.84,0,120.34,0,53.877,0,0,48.905,0,109.236c-.039,23.7,8.453,46.764,24.183,65.681A100.943,100.943,0,0,1,9.355,122.36Z"/>
          </g>
          <path id="Path_43" data-name="Path 43" d="M705.32,326.79s8.639,3.173,14.282.706l2.822.178s4.69,3.289,9.65,1.818" transform="translate(-526.103 -233.951)" opacity="0.05"/>
          <path id="Path_44" data-name="Path 44" d="M809.854,313.09s-1.409,3.35-.706,4.408" transform="translate(-589.734 -225.539)" opacity="0.05"/>
          <path id="Path_45" data-name="Path 45" d="M665.58,310.35s.706,3.35,0,4.408" transform="translate(-501.703 -223.857)" opacity="0.05"/>
        </g>
      </g>
    </g>
    <g id="humaaans_sitting-4" data-name="humaaans/sitting-4" transform="translate(745 1489.777)">
      <g id="A-Human_Sitting" data-name="A-Human/Sitting" transform="translate(190.49 259.223) rotate(180)">
        <g id="Head_Front_Curly" data-name="Head/Front/Curly" transform="translate(37.832 163.513)">
          <g id="Head" transform="translate(15.389)">
            <path id="Path_50" data-name="Path 50" d="M5.3,24.694C2.343,28.162.343,32.412.678,37.175c.963,13.723,20.065,10.7,23.781,3.778s3.274-24.494-1.528-25.732c-1.915-.494-6,.716-10.147,3.218L15.389,0H0Z" fill="none" stroke="#fff" stroke-width="1" fill-rule="evenodd"/>
          </g>
          <path id="hair" d="M46.666,32.6a3.329,3.329,0,0,1-2.331,2.364,3.071,3.071,0,0,1-.858.085c-.1,0-.132-.034-.181.038a.949.949,0,0,0-.051.248A4.441,4.441,0,0,1,41.933,37.6a5.726,5.726,0,0,1-3.439,1.627,5.014,5.014,0,0,1-2.068-.282,8.187,8.187,0,0,1-1-.429c-.1-.049-.416-.29-.514-.274s-.327.287-.415.355a6.079,6.079,0,0,1-3.8,1.156,6.952,6.952,0,0,1-4.29-1.023,8.581,8.581,0,0,1-.774-.643c-.129-.12-.255-.245-.374-.375q-.108-.117-.21-.241c-.115-.14-.1-.185-.257-.088a3.189,3.189,0,0,1-2.048.461,4.582,4.582,0,0,1-1.236-.349c-.134-.057-.445-.286-.588-.289s-.448.21-.594.264a4.873,4.873,0,0,1-2.47.229,6.379,6.379,0,0,1-2.422-.952,3.256,3.256,0,0,1-.9-.816c-.106-.146-.2-.3-.321-.435-.07-.079-.209-.16-.246-.26a5.319,5.319,0,0,1-1.027.453,2.529,2.529,0,0,1-1.445-.055A5.744,5.744,0,0,1,9.22,34.018a6.467,6.467,0,0,1-.843-1.132q-.172-.292-.316-.6a2.229,2.229,0,0,0-.139-.312c-.079-.115-.132-.117-.275-.167A4.444,4.444,0,0,1,5.755,30.54a4.362,4.362,0,0,1-.98-2.077,1.058,1.058,0,0,0-.039-.256c-.036-.034-.182-.019-.237-.025a4.993,4.993,0,0,1-.569-.1,4.7,4.7,0,0,1-1-.36A5.225,5.225,0,0,1,.369,24.664a6.2,6.2,0,0,1,.1-4.248,4.15,4.15,0,0,1,.315-.622c.075-.121.1-.122.051-.249s-.154-.279-.219-.418a6,6,0,0,1-.453-1.42,6.661,6.661,0,0,1-.078-2.455,3.544,3.544,0,0,1,.379-1.077,3.09,3.09,0,0,1,.332-.482c.065-.078.135-.152.207-.223a1.382,1.382,0,0,0,.131-.121c.086-.111.1-.02.06-.182A7.269,7.269,0,0,0,.9,12.5C.814,12.267.734,12.037.66,11.8a10.2,10.2,0,0,1-.353-1.441,4.525,4.525,0,0,1,.319-2.8,2.8,2.8,0,0,1,.792-.943,2.939,2.939,0,0,1,.52-.316c.094-.045.215-.064.258-.155s-.022-.293-.038-.4a6.711,6.711,0,0,1,.079-2.891A4,4,0,0,1,3.821.73,4.926,4.926,0,0,1,8.746.59a5.17,5.17,0,0,1,1.1.755C10.688.21,12.424.246,13.656.57a5.475,5.475,0,0,1,3.478,2.874,2.317,2.317,0,0,1,3.681.484,3.067,3.067,0,0,1,.311,1.01c.025.184.009.37.028.552a2.853,2.853,0,0,0,.269.684,3.774,3.774,0,0,1,.287,1.363,6.917,6.917,0,0,1-.052.732,2.514,2.514,0,0,0,.075.643,2.94,2.94,0,0,0-1.245.156,2.458,2.458,0,0,0-.962.677,5.615,5.615,0,0,0-1.211,2.263c-.547,1.792-.323,3.943,1.48,4.927a9.289,9.289,0,0,0,4.356.23c1.052-.238,2.244-2.559,2.3-2.777.036-.135.018-.3.142-.392.273-.2.722.145.923.315a3.641,3.641,0,0,1,.809,1.076A13.309,13.309,0,0,1,29.437,18.1c.205.725.336,1.473.6,2.179a3.334,3.334,0,0,0,1.341,1.73,11.8,11.8,0,0,0,2.306.934,5.725,5.725,0,0,1,2.134,1.172,2.949,2.949,0,0,1,.366.408c.084.117.167.341.294.415.2.115.488-.185.66-.294a7.625,7.625,0,0,0,2.123-2.107,13.111,13.111,0,0,0,1.409-2.509,7.254,7.254,0,0,1,.948-2.092,4,4,0,0,1,2.385-.181,3.014,3.014,0,0,1,1.3,1.126,1.75,1.75,0,0,1,.148,1.147c-.046.231-.139.447-.19.674a2.1,2.1,0,0,1-.175.546,1.346,1.346,0,0,1-.839.669,3.941,3.941,0,0,1,.907,1.23,5.277,5.277,0,0,1,.469,1.6A1.945,1.945,0,0,1,45.367,26a3.286,3.286,0,0,1-1.065.884A6.93,6.93,0,0,1,45.785,28.5,5.043,5.043,0,0,1,46.666,32.6Z" transform="translate(0 17.954)" fill="none" stroke="#fff" stroke-width="1" fill-rule="evenodd"/>
        </g>
        <g id="Bottom_Sitting_Sweat-Pants" data-name="Bottom/Sitting/Sweat-Pants" transform="translate(0 0)">
          <g id="Objects_Seat_Cube-2" data-name="Objects/Seat/Cube-2" transform="translate(0 3.847)">
            <path id="Seat" d="M10.26,79.512H84a10.26,10.26,0,0,0,10.26-10.26V10.26A10.26,10.26,0,0,0,84,0H10.26A10.26,10.26,0,0,0,0,10.26V69.253A10.26,10.26,0,0,0,10.26,79.512Zm10.26-17.954a2.565,2.565,0,0,1-2.565-2.565V20.519a2.565,2.565,0,0,1,2.565-2.565H73.741a2.565,2.565,0,0,1,2.565,2.565V58.993a2.565,2.565,0,0,1-2.565,2.565Z" fill="none" stroke="#fff" stroke-width="1" fill-rule="evenodd"/>
          </g>
          <path id="Skin" d="M97.7,0C89.488,18.184,83.547,34.018,81.162,42.372c-4.084,14.3-7.19,26.891-7.975,31.592-1.872,11.209,14.4,11.862,16.555,6.291C93,71.823,98.681,44.121,105.512,2.278ZM2.4,57.067c7.538,2.98,33.936,12.3,46.668,14.942,3.659.758,7.2,1.462,10.538,2.1C69.52,76,74.654,58.122,65.11,56.749,41.342,53.328,7.646,49.8,4.763,49.4.721,48.843-2.333,55.194,2.4,57.067Z" transform="translate(42.41 5.989)" fill="none" stroke="#fff" stroke-width="1" fill-rule="evenodd"/>
          <path id="Leg-Back" d="M40.774,63.626,0,84.382V88.9H4.849q59.17-15.078,60.472-19.325.014-.046.026-.092l.059-.079c7.818-10.751,12.5-63.24,14.036-67.17L64.461,0C58.731,21.249,40.4,36.052,40.884,61.5A8.338,8.338,0,0,0,40.774,63.626Z" transform="translate(67.329 21.39)" fill="none" stroke="#fff" stroke-width="1" fill-rule="evenodd"/>
          <path id="Leg-Front" d="M32.243,16.2c-3.731.747-7.166,1.413-10.106,1.929C3.148,21.465-2.389,31.629.885,53.807H35.871c5.715-1.642,35.416-14.1,50.827-20.722,10.2-4.385,6.984-20.191,1.208-24.3a.564.564,0,0,0-.32-.5C56.516-4.6,31.936,2.159,23.725,0l-3.8,11.981Z" transform="translate(38.474 56.484)" fill="none" stroke="#fff" stroke-width="1" fill-rule="evenodd"/>
          <g id="Accessories_Shoe_Flat-Sneaker" data-name="Accessories/Shoe/Flat-Sneaker" transform="matrix(0.438, -0.899, 0.899, 0.438, 38.507, 61.824)">
            <path id="shoe" d="M1.076,9.361A13.768,13.768,0,0,1,0,5.062,32.175,32.175,0,0,1,.578,0H36.744q1.41,4.661-1.628,5.032T30.07,5.7L13.261,13.2a.641.641,0,0,1-.847-.325l-.007-.017-1.081-2.621a11.532,11.532,0,0,0-4.57-1.312,10.349,10.349,0,0,0-3.945,1.154h0a1.282,1.282,0,0,1-1.7-.631Q1.092,9.4,1.076,9.361Z" transform="translate(0 0)" fill="none" stroke="#fff" stroke-width="1" fill-rule="evenodd"/>
          </g>
          <g id="Accessories_Shoe_Flat-Sneaker-2" data-name="Accessories/Shoe/Flat-Sneaker" transform="translate(135.299 0)">
            <path id="shoe-2" data-name="shoe" d="M1.076,9.361A13.768,13.768,0,0,1,0,5.062,32.175,32.175,0,0,1,.578,0H36.744q1.41,4.661-1.628,5.032T30.07,5.7L13.261,13.2a.641.641,0,0,1-.847-.325l-.007-.017-1.081-2.621a11.532,11.532,0,0,0-4.57-1.312,10.349,10.349,0,0,0-3.945,1.154h0a1.282,1.282,0,0,1-1.7-.631Q1.092,9.4,1.076,9.361Z" transform="translate(0 0)" fill="none" stroke="#fff" stroke-width="1" fill-rule="evenodd"/>
          </g>
        </g>
        <g id="Body_Jacket" data-name="Body/Jacket" transform="translate(2.028 61.457)">
          <path id="Skin-2" data-name="Skin" d="M102.52,59.015l18.165-17.72a55.058,55.058,0,0,0,12.991-7.468c.759-.916,1.586-2.67-1.986-1.885s-7.364,1.45-8.035.289,1.307-2.942.066-4.462q-1.241-1.52-8.345,9.671L96.487,48.576Zm-80.626-2.5,13.4-.053Q22.884,16.4,21.895,13.947c-1.484-3.677,1.656-9.277,3-12.287C20.52-.3,20.986,6.951,15.47,4.384,10.434,2.042,6.6-2.2.786,1.387c-.715.441-1.5,2.1.395,3.4C5.9,8.023,12.7,13.685,13.617,15.549Q15.5,19.361,21.895,56.516Z" transform="translate(0 0)" fill="none" stroke="#fff" stroke-width="1" fill-rule="evenodd"/>
          <path id="Coat-Back" d="M0,82.29l5.441,1.431q17.383-34.387,55.476-60.4L44.913,0C18.8,25.572,1.7,52.815,0,82.29Z" transform="translate(52.803 30.766) rotate(-5)" fill="none" stroke="#fff" stroke-width="1" fill-rule="evenodd"/>
          <path id="Shirt" d="M0,0H49.375Q32.216,41.72,32.216,70.881L17.322,73.1C5.617,54.275,2.312,31.1,0,0Z" transform="translate(35.804 43.063)" fill="none" stroke="#fff" stroke-width="1" fill-rule="evenodd"/>
          <path id="Coat-Front" d="M39.45,94.25l.006.011h.972q1.745-.06,5.316-.217l3.6-10.285q.571-18.809,6.669-75.812H23.646q.127-3.937.42-7.947H0Q5.4,60.919,39.438,94.26Z" transform="translate(13.361 21.902)" fill="none" stroke="#fff" stroke-width="1" fill-rule="evenodd"/>
          <path id="Shade" d="M2.236,33.836Q3.618,9.294,9.155,0H.106a169.181,169.181,0,0,0,2.13,33.836Z" transform="translate(36.909 29.597)" fill="none" stroke="#fff" stroke-width="1" fill-rule="evenodd"/>
          <path id="Light" d="M0,0,15.96,7.419V0Z" transform="translate(44.211 49.475)" fill="none" stroke="#fff" stroke-width="1" fill-rule="evenodd"/>
        </g>
      </g>
    </g>
  </g>
</svg>
