<svg xmlns="http://www.w3.org/2000/svg" xmlns:xlink="http://www.w3.org/1999/xlink" width="201.696" height="184.589" viewBox="0 0 201.696 184.589">
  <defs>
    <linearGradient id="linear-gradient" x1="0.5" y1="1" x2="0.5" gradientUnits="objectBoundingBox">
      <stop offset="0" stop-color="gray" stop-opacity="0.251"/>
      <stop offset="0.54" stop-color="gray" stop-opacity="0.122"/>
      <stop offset="1" stop-color="gray" stop-opacity="0.102"/>
    </linearGradient>
    <linearGradient id="linear-gradient-2" x1="0.5" x2="0.5" y2="1" gradientUnits="objectBoundingBox">
      <stop offset="0" stop-color="#f95700"/>
      <stop offset="1" stop-color="#923300"/>
    </linearGradient>
    <linearGradient id="linear-gradient-3" x1="0.5" x2="0.5" y2="1" gradientUnits="objectBoundingBox">
      <stop offset="0"/>
      <stop offset="1" stop-color="#191919"/>
    </linearGradient>
  </defs>
  <g id="Group_25" data-name="Group 25" transform="translate(-589.362 -1527.712)">
    <g id="Group_24" data-name="Group 24">
      <g id="Rectangle_19" data-name="Rectangle 19" transform="translate(763.338 1567.852) rotate(68)" fill="none" stroke="#707070" stroke-width="1">
        <rect width="74" height="184" stroke="none"/>
        <rect x="0.5" y="0.5" width="73" height="183" fill="none"/>
      </g>
      <g id="Rectangle_20" data-name="Rectangle 20" transform="translate(668.401 1621.659) rotate(163)" fill="none" stroke="#b03d00" stroke-width="1">
        <rect width="64" height="61" stroke="none"/>
        <rect x="0.5" y="0.5" width="63" height="60" fill="none"/>
      </g>
      <g id="Group_14" data-name="Group 14" transform="translate(556.993 1521.995)">
        <circle id="Ellipse_1" data-name="Ellipse 1" cx="92.294" cy="92.294" r="92.294" transform="translate(40.783 5.717)" fill="url(#linear-gradient)"/>
        <circle id="Ellipse_2" data-name="Ellipse 2" cx="90.765" cy="90.765" r="90.765" transform="translate(42.313 7.247)" fill="url(#linear-gradient-2)"/>
        <circle id="Ellipse_3" data-name="Ellipse 3" cx="88.153" cy="88.153" r="88.153" transform="translate(44.925 9.858)" fill="url(#linear-gradient-3)"/>
        <rect id="Rectangle_5" data-name="Rectangle 5" width="2.079" height="63.739" transform="translate(132.038 38.606)" fill="#ef5300" opacity="0.799"/>
        <g id="Group_3" data-name="Group 3" transform="translate(94.365 77.404)" opacity="0.1">
          <rect id="Rectangle_6" data-name="Rectangle 6" width="57.62" height="5.099" transform="translate(43.047 19.078)"/>
          <rect id="Rectangle_7" data-name="Rectangle 7" width="5.099" height="40.926" transform="translate(0 4.517) rotate(-62.36)"/>
          <circle id="Ellipse_4" data-name="Ellipse 4" cx="7.649" cy="7.649" r="7.649" transform="translate(31.064 13.979)"/>
        </g>
        <rect id="Rectangle_8" data-name="Rectangle 8" width="57.62" height="2.099" transform="translate(137.412 97.462)" fill="#f45500"/>
        <rect id="Rectangle_9" data-name="Rectangle 9" width="40.926" height="2.099" transform="translate(95.357 77.047) rotate(27.64)" fill="#f05400"/>
        <circle id="Ellipse_5" data-name="Ellipse 5" cx="7.649" cy="7.649" r="7.649" transform="translate(125.429 90.363)" fill="#c74500"/>
        <g id="Group_4" data-name="Group 4" transform="translate(47.998 16.842) rotate(-3)" opacity="0.1">
          <path id="Path_20" data-name="Path 20" d="M326.179,246.091c0-39.85,35.587-72.153,79.487-72.153,24.982-.02,48.517,10.639,63.522,28.769-13.527-22.314-39.648-37.438-69.7-37.438-43.9,0-79.487,32.3-79.487,72.153a67.593,67.593,0,0,0,15.973,43.383A66.675,66.675,0,0,1,326.179,246.091Z" transform="translate(-320 -165.27)"/>
        </g>
        <path id="Path_43" data-name="Path 43" d="M705.32,326.79s5.706,2.1,9.433.467l1.864.117s3.1,2.172,6.374,1.2" transform="translate(-546.16 -259.751)" opacity="0.05"/>
        <path id="Path_44" data-name="Path 44" d="M809.548,313.09s-.931,2.213-.467,2.912" transform="translate(-623.37 -249.544)" opacity="0.05"/>
        <path id="Path_45" data-name="Path 45" d="M665.58,310.35s.467,2.213,0,2.912" transform="translate(-516.552 -247.502)" opacity="0.05"/>
      </g>
    </g>
  </g>
</svg>
