<svg xmlns="http://www.w3.org/2000/svg" xmlns:xlink="http://www.w3.org/1999/xlink" width="769.926" height="539.639" viewBox="0 0 769.926 539.639">
  <defs>
    <linearGradient id="linear-gradient" x1="0.5" x2="0.5" y2="1" gradientUnits="objectBoundingBox">
      <stop offset="0"/>
      <stop offset="1" stop-color="#0d0d0d"/>
    </linearGradient>
    <filter id="Rectangle_2" x="362.704" y="0" width="121" height="80" filterUnits="userSpaceOnUse">
      <feOffset dy="5" input="SourceAlpha"/>
      <feGaussianBlur stdDeviation="3" result="blur"/>
      <feFlood flood-opacity="0.161"/>
      <feComposite operator="in" in2="blur"/>
      <feComposite in="SourceGraphic"/>
    </filter>
    <filter id="Rectangle_3" x="302.704" y="111" width="250" height="165" filterUnits="userSpaceOnUse">
      <feOffset dy="5" input="SourceAlpha"/>
      <feGaussianBlur stdDeviation="3" result="blur-2"/>
      <feFlood flood-opacity="0.161"/>
      <feComposite operator="in" in2="blur-2"/>
      <feComposite in="SourceGraphic"/>
    </filter>
    <filter id="Rectangle_4" x="192.704" y="51" width="223" height="141" filterUnits="userSpaceOnUse">
      <feOffset dy="5" input="SourceAlpha"/>
      <feGaussianBlur stdDeviation="3" result="blur-3"/>
      <feFlood flood-opacity="0.161"/>
      <feComposite operator="in" in2="blur-3"/>
      <feComposite in="SourceGraphic"/>
    </filter>
  </defs>
  <g id="Group_26" data-name="Group 26" transform="translate(-116.296 -92)">
    <g id="Group_21" data-name="Group 21">
      <g id="Rectangle_21" data-name="Rectangle 21" transform="matrix(-0.309, 0.951, -0.951, -0.309, 661.335, 462.268)" fill="none" stroke="#f85600" stroke-width="1">
        <rect width="175" height="175" stroke="none"/>
        <rect x="0.5" y="0.5" width="174" height="174" fill="none"/>
      </g>
      <g id="Rectangle_13" data-name="Rectangle 13" transform="translate(537.874 156.856) rotate(59)" fill="none" stroke="#707070" stroke-width="1">
        <rect width="346" height="346" stroke="none"/>
        <rect x="0.5" y="0.5" width="345" height="345" fill="none"/>
      </g>
      <g id="Group_17" data-name="Group 17" transform="translate(106 -4)">
        <g id="Group_16" data-name="Group 16">
          <g id="humaaans_standing-19" data-name="humaaans/standing-19" transform="translate(-35.586 154.886)">
            <g id="humaaan-3" transform="translate(28 2)">
              <g id="Head_Front_Short-Beard" data-name="Head/Front/Short-Beard" transform="matrix(0.966, -0.259, 0.259, 0.966, 47.526, 38.28)">
                <g id="Head" transform="translate(58.494 33.283)">
                  <path id="Path_48" data-name="Path 48" d="M8.95,37.03C3.958,31.223.58,24.106,1.145,16.132,2.771-6.844,35.041-1.79,41.318,9.807s5.531,41.012-2.581,43.085c-3.235.827-10.127-1.2-17.142-5.389L26,78.376H0Z" fill="none" stroke="#fff" stroke-width="1" fill-rule="evenodd"/>
                </g>
                <path id="Hair" d="M81.7,51.952q1.513,20.609,8.005,20.609c6.492,0,12-4.03,14.849-4.03,2.077,0,1.613,2.541.236,4.425-1.136,1.554-6.666,3.052-6.666,5.462s4.369.545,4.369,1.975c0,2.364.768,6.809-3.428,6.809-4.247,0-16.422-1.513-18.509-7.676Q78.54,73.56,77.948,54.8a6.806,6.806,0,0,0-.786-.045A6.516,6.516,0,0,0,70.574,61.2a6.354,6.354,0,0,0,1.985,4.608c-1.524,2.1-3.233,4.3-5.19,6.57C60.014,68.061,54.556,55.431,61.746,43.3c1.987-5.944,6.487-9.118,11.8-10.593a19.517,19.517,0,0,1,12.544-.9c7.394.62,14,2.825,15.867,4.134,0,6.845-1.356,8.875-12.942,8.7C86.17,46.1,83.982,48.634,81.7,51.952Z" transform="translate(-0.966 -0.259)" fill="none" stroke="#fff" stroke-width="1" fill-rule="evenodd"/>
              </g>
              <g id="Bottom_Standing_Baggy-Pants" data-name="Bottom/Standing/Baggy-Pants" transform="translate(0 218.436)">
                <path id="Leg" d="M145.152,0l53.166,134.046,35.659,113.325h14.081L193.544,0Z" fill="none" stroke="#fff" stroke-width="1" fill-rule="evenodd"/>
                <path id="Leg-2" data-name="Leg" d="M134.446,0c-.566,47.1-8.823,110.523-10.142,113.46q-1.319,2.936-91.076,74.679l9.7,10.338q105.9-61.511,110.8-69.715c4.9-8.2,20.856-83.7,33.666-128.763Z" fill="none" stroke="#fff" stroke-width="1" fill-rule="evenodd"/>
                <g id="Accessories_Shoe_Flat-Sneaker" data-name="Accessories/Shoe/Flat-Sneaker" transform="matrix(0.643, 0.766, -0.766, 0.643, 51.081, 164.758)">
                  <path id="shoe" d="M2.9,27.516a23.259,23.259,0,0,0-1.818,7.262,54.353,54.353,0,0,0,.976,8.551h61.1q2.381-7.873-2.749-8.5t-8.525-1.134l-28.4-12.659a1.083,1.083,0,0,0-1.43.548l-.012.028-1.825,4.428a19.481,19.481,0,0,1-7.72,2.216,17.482,17.482,0,0,1-6.664-1.949h0A2.166,2.166,0,0,0,2.96,27.373Q2.928,27.443,2.9,27.516Z" fill="none" stroke="#fff" stroke-width="1" fill-rule="evenodd"/>
                </g>
                <g id="Accessories_Shoe_Flat-Sneaker-2" data-name="Accessories/Shoe/Flat-Sneaker" transform="translate(225.311 214.729)">
                  <path id="shoe-2" data-name="shoe" d="M2.9,27.516a23.259,23.259,0,0,0-1.818,7.262,54.353,54.353,0,0,0,.976,8.551h61.1q2.381-7.873-2.749-8.5t-8.525-1.134l-28.4-12.659a1.083,1.083,0,0,0-1.43.548l-.012.028-1.825,4.428a19.481,19.481,0,0,1-7.72,2.216,17.482,17.482,0,0,1-6.664-1.949h0A2.166,2.166,0,0,0,2.96,27.373Q2.928,27.443,2.9,27.516Z" fill="none" stroke="#fff" stroke-width="1" fill-rule="evenodd"/>
                </g>
                <path id="Pant" d="M180.9,235.7l66.948-7.238L198.23,0H138.267Z" fill="none" stroke="#fff" stroke-width="1" fill-rule="evenodd"/>
                <path id="Pant-2" data-name="Pant" d="M47.077,171.46l43.914,51.778q69.38-75.483,80.9-98.506T192.6,0H125.089q-5.02,89.48-6.768,93.644T47.077,171.46Z" fill="none" stroke="#fff" stroke-width="1" fill-rule="evenodd"/>
              </g>
              <g id="Body_Hoodie" data-name="Body/Hoodie" transform="translate(7.294 131.584) rotate(-10)">
                <path id="Skin" d="M206.659,99.394l34.553,25.248a93.273,93.273,0,0,1,23.489,9.392c1.485,1.347,3.28,4.074-2.879,3.6s-12.66-.691-13.51,1.4,2.878,4.591,1.16,7.412q-1.718,2.821-16.234-14.146L199.02,118.182Zm-132.666.871,22.637.089Q75.664,167.7,73.993,171.821c-2.507,6.181,2.8,15.6,5.066,20.654-7.388,3.289-6.6-8.893-15.92-4.578-8.506,3.938-14.977,11.073-24.8,5.039-1.208-.742-2.532-3.535.667-5.718,7.97-5.438,19.455-14.956,21.007-18.088Q63.183,162.721,73.993,100.265Z" fill="none" stroke="#fff" stroke-width="1" fill-rule="evenodd"/>
                <path id="Coat-Back" d="M132.973,10.348l9.192-2.409C179.39,34.671,198.612,90.6,243.7,117.174l-9.112,13.492C160.173,128.037,135.824,59.9,132.973,10.348Z" transform="translate(6.757 -16.151) rotate(5)" fill="none" stroke="#fff" stroke-width="1" fill-rule="evenodd"/>
                <path id="Shirt" d="M97.49,122.879h82.879c3.787,0,3.074-5.442,2.526-8.187C176.577,83,151.913,48.841,151.913,3.73L128.007,0C108.233,31.645,101.395,70.607,97.49,122.879Z" fill="none" stroke="#fff" stroke-width="1" fill-rule="evenodd"/>
                <path id="Coat-Front" d="M98.156,31.106a13.655,13.655,0,0,1-8.249-6.949C81.17,8.468,84.325-.17,93.663-3.009S111.329,0,126.206,0a15.046,15.046,0,0,1,2.223.151l7.484.425Q168.122,109.2,153.679,145.515H88.447a220.95,220.95,0,0,1-11.1,22.636H59.577Q57.068,87.417,98.156,31.106Z" fill="none" stroke="#fff" stroke-width="1" fill-rule="evenodd"/>
                <path id="Shade" d="M102.652,108.325q3.077,25.621,10,37.19H88.447Q95.21,129.824,102.652,108.325Z" fill="none" stroke="#fff" stroke-width="1" fill-rule="evenodd"/>
              </g>
            </g>
          </g>
        </g>
        <g id="humaaans_standing-3" data-name="humaaans/standing-3" transform="translate(551 191)">
          <g id="humaaan-12" transform="translate(0 0)">
            <g id="Head_Front_Pony" data-name="Head/Front/Pony" transform="matrix(-0.966, 0.259, -0.259, -0.966, 199.333, 84.619)">
              <g id="Head-2" data-name="Head" transform="translate(49.016 0)">
                <path id="Path_49" data-name="Path 49" d="M8.617,40.162C3.811,45.8.559,52.716,1.1,60.462,2.668,82.78,33.736,77.87,39.78,66.606S45.1,26.768,37.294,24.755c-3.115-.8-9.75,1.164-16.5,5.234L25.03,0H0Z" transform="translate(0)" fill="none" stroke="#fff" stroke-width="1" fill-rule="evenodd"/>
              </g>
              <path id="hair-2" data-name="hair" d="M66.3,10.444C63.192,4.487,58.9,0,54.611,0,46.465,0,40.673,10.891,40.673,22.6q0,.617.024,1.226C32.081,17.913,25.44,6.257,14.038,6.257c-15.512,0-21.672,31.287,0,31.287,14.739,0,21.988-2.149,28.236-5.327a20.3,20.3,0,0,0,5.409,8.435,8.408,8.408,0,0,0,2.493,1.769,11.551,11.551,0,0,0,2.071.888A51.96,51.96,0,0,0,67.57,45.884c1.138.04,2.256.051,3.347.037A10.429,10.429,0,1,0,81.911,35.474a52.638,52.638,0,0,0-11.665-1.983,21.749,21.749,0,0,0,.671-5.595,31.633,31.633,0,0,0-.582-5.818,4.873,4.873,0,0,1-3.59,1.909,6.254,6.254,0,0,1-6.257-6.257C60.488,13.64,62.849,10.681,66.3,10.444Z" transform="translate(0 31.287)" fill="none" stroke="#fff" stroke-width="1" fill-rule="evenodd"/>
            </g>
            <g id="Bottom_Standing_Sweatpants" data-name="Bottom/Standing/Sweatpants" transform="translate(68.105 189.498)">
              <path id="Leg-3" data-name="Leg" d="M207.7,0l-38.2,131.641L151.525,230.48H133.491L151.493,0Z" transform="translate(-92.976)" fill="none" stroke="#fff" stroke-width="1" fill-rule="evenodd"/>
              <path id="Leg-4" data-name="Leg" d="M156.7,0c-2.666,68.387-1.614,105.687-1.018,111.9s3.984,47.826,27.063,120.665H163.992c-30.565-69.877-41.235-111.489-44.741-120.665S105.393,65.425,90.277,0Z" transform="translate(-24.817)" fill="none" stroke="#fff" stroke-width="1" fill-rule="evenodd"/>
              <path id="Pant-3" data-name="Pant" d="M210.89,0q-14.905,67.947-51.56,216.922H132.952C131,114.983,139.292,47.89,153.645,0Z" transform="translate(-95.351)" fill="none" stroke="#fff" stroke-width="1" fill-rule="evenodd"/>
              <path id="Pant-4" data-name="Pant" d="M161.676,0c-2.611,68.387,4.155,135.761,25.112,217.987H158.644C128.023,149.153,106.076,82.111,91.077,0Z" transform="translate(-29.655)" fill="none" stroke="#fff" stroke-width="1" fill-rule="evenodd"/>
              <g id="Accessories_Shoe_Flat-Simple" data-name="Accessories/Shoe/Flat-Simple" transform="translate(98.032 227.351)">
                <path id="Shoe-3" data-name="Shoe" d="M62.575,38.587,61.54,21.9q-9.09,2.658-22.77-2.086Q24.061,30.234,1.735,34.044A2.086,2.086,0,0,0,.079,36.67L1.51,41.716H60.5Z" transform="translate(0 -19.815)" fill="none" stroke="#fff" stroke-width="1" fill-rule="evenodd"/>
              </g>
              <g id="Accessories_Shoe_Flat-Simple-2" data-name="Accessories/Shoe/Flat-Simple" transform="translate(0 227.351)">
                <path id="Shoe-4" data-name="Shoe" d="M62.575,38.587,61.54,21.9q-9.09,2.658-22.77-2.086Q24.061,30.234,1.735,34.044A2.086,2.086,0,0,0,.079,36.67L1.51,41.716H60.5Z" transform="translate(0 -19.815)" fill="none" stroke="#fff" stroke-width="1" fill-rule="evenodd"/>
              </g>
            </g>
            <g id="Body_Pointing-Forward" data-name="Body/Pointing-Forward" transform="translate(210.317 221.023) rotate(170)">
              <path id="Skin-2" data-name="Skin" d="M0,32.684,36.2,52.51A89.547,89.547,0,0,0,53.992,69.165c1.785.745,4.907,1.2,1.988-3.986s-5.758-10.764-4.27-12.361,5.2.634,6.971-2.019q1.774-2.653-19.01-8.381l-26.3-24.083ZM56.694,15.957l15.9,8.735q3.347,12.734,8,12.814c2.384,1.109-1.767-9.618,2.751-8.688s15.547,9.133,17.448,7.467c2.811-2.464.3-10.029-2.649-13.793C92.625,15.458,88.055,13.053,76.758,9.9Q67.9,7.433,57.6,0Z" transform="translate(84.907 73.83)" fill="none" stroke="#fff" stroke-width="1" fill-rule="evenodd"/>
              <path id="Sleeve" d="M5.741,25.4a88.944,88.944,0,0,1,49.272,6.637l4.526-16.714C45.317,5.077,26.447-2.207,11.4.61-.452,2.831-4.256,18.2,5.741,25.4Z" transform="translate(65.581 84.94) rotate(9)" fill="none" stroke="#fff" stroke-width="1" fill-rule="evenodd"/>
              <path id="Clothes" d="M84.35,85.593q20.191-5.035,67.717,11.876,11.789-24.388,10.9-34.774C135.786,48.5,112.49,42.167,93.3,41.749c.61-11.388-.776-22.224-5.433-32.126-9.573-20.356-65.628-1.5-84.476-5.214C-8.415,42.74,14.407,58.318,14.425,82.844c.02,26.859,21.587,68.2,24.76,68.2H68.122C69.719,130.533,77.755,107.927,84.35,85.593Z" transform="translate(0 0)" fill="none" stroke="#fff" stroke-width="1" fill-rule="evenodd"/>
            </g>
          </g>
        </g>
      </g>
    </g>
    <g id="Group_2" data-name="Group 2" transform="translate(276 -81.27)">
      <g transform="matrix(1, 0, 0, 1, -159.7, 173.27)" filter="url(#Rectangle_2)">
        <g id="Rectangle_2-2" data-name="Rectangle 2" transform="translate(371.7 4)" stroke="#c24300" stroke-width="1" fill="url(#linear-gradient)">
          <rect width="103" height="62" stroke="none"/>
          <rect x="0.5" y="0.5" width="102" height="61" fill="none"/>
        </g>
      </g>
      <g transform="matrix(1, 0, 0, 1, -159.7, 173.27)" filter="url(#Rectangle_3)">
        <g id="Rectangle_3-2" data-name="Rectangle 3" transform="translate(311.7 115)" stroke="#a13800" stroke-width="1" fill="url(#linear-gradient)">
          <rect width="232" height="147" stroke="none"/>
          <rect x="0.5" y="0.5" width="231" height="146" fill="none"/>
        </g>
      </g>
      <g transform="matrix(1, 0, 0, 1, -159.7, 173.27)" filter="url(#Rectangle_4)">
        <g id="Rectangle_4-2" data-name="Rectangle 4" transform="translate(201.7 55)" stroke="#f85600" stroke-width="1" fill="url(#linear-gradient)">
          <rect width="205" height="123" stroke="none"/>
          <rect x="0.5" y="0.5" width="204" height="122" fill="none"/>
        </g>
      </g>
    </g>
  </g>
</svg>
